<svg viewBox="0 0 3470 1670" xmlns="http://www.w3.org/2000/svg"><path d="M208.95 124.804l-84.146 84.146L249.61 333.754 124.804 458.558l84.146 84.146L333.755 417.9l124.804 124.804 84.146-84.146L417.9 333.754 542.705 208.95l-84.146-84.146-124.804 124.804L208.95 124.804zm0 501l-84.146 84.146L249.61 834.754 124.804 959.558l84.146 84.146L333.755 918.9l124.804 124.804 84.146-84.146L417.9 834.754 542.705 709.95l-84.146-84.146-124.804 124.804L208.95 625.804zm0 501l-84.146 84.146 124.805 124.804-124.805 124.804 84.146 84.146L333.755 1419.9l124.804 124.804 84.146-84.146L417.9 1335.754l124.805-124.804-84.146-84.146-124.804 124.804-124.805-124.804zm793.12-881.88c-12.428-13.384-24.537-22.307-36.328-26.768-11.472-4.461-23.103-6.692-34.894-6.692-17.527 0-33.46 3.187-47.8 9.56-14.021 6.055-26.131 14.659-36.328 25.812-10.197 10.835-18.164 23.581-23.9 38.24-5.417 14.659-8.126 30.433-8.126 47.322 0 18.164 2.709 34.894 8.126 50.19 5.736 15.296 13.703 28.521 23.9 39.674 10.197 11.153 22.307 19.917 36.328 26.29 14.34 6.373 30.273 9.56 47.8 9.56 13.703 0 26.927-3.187 39.674-9.56 13.065-6.692 25.175-17.208 36.328-31.548l49.712 35.372c-15.296 21.032-33.938 36.328-55.926 45.888-21.988 9.56-45.41 14.34-70.266 14.34-26.131 0-50.19-4.143-72.178-12.428-21.669-8.604-40.47-20.554-56.404-35.85-15.615-15.615-27.883-34.257-36.806-55.926-8.923-21.669-13.384-45.729-13.384-72.178 0-27.087 4.461-51.624 13.384-73.612 8.923-22.307 21.191-41.267 36.806-56.882 15.933-15.615 34.735-27.565 56.404-35.85 21.988-8.604 46.047-12.906 72.178-12.906 22.944 0 44.135 4.143 63.574 12.428 19.757 7.967 38.081 21.669 54.97 41.108l-46.844 34.416zm90.615 29.636h57.36V504h-57.36V274.56zm-8.126-77.914c0-9.241 3.346-17.208 10.038-23.9 7.01-7.011 15.774-10.516 26.29-10.516s19.279 3.346 26.29 10.038c7.329 6.373 10.994 14.499 10.994 24.378s-3.665 18.164-10.994 24.856c-7.011 6.373-15.774 9.56-26.29 9.56s-19.28-3.346-26.29-10.038c-6.692-7.011-10.038-15.137-10.038-24.378zm104.57 126.67V274.56h47.322v-66.442h57.36v66.442h63.096v48.756h-63.096v100.38c0 11.472 2.071 20.554 6.214 27.246 4.461 6.692 13.065 10.038 25.812 10.038 5.098 0 10.675-.478 16.73-1.434 6.054-1.275 10.834-3.187 14.34-5.736v48.278c-6.055 2.868-13.544 4.78-22.466 5.736-8.604 1.275-16.252 1.912-22.944 1.912-15.296 0-27.884-1.753-37.762-5.258-9.56-3.187-17.208-8.126-22.944-14.818-5.418-7.011-9.242-15.615-11.472-25.812-1.912-10.197-2.868-21.988-2.868-35.372v-105.16h-47.322zm186.263-48.756h63.096l64.052 159.174h.956l57.36-159.174h59.75L1512.1 553.234c-4.143 10.835-8.764 20.235-13.862 28.202-4.78 8.285-10.516 15.137-17.208 20.554-6.692 5.736-14.659 9.879-23.9 12.428-8.923 2.868-19.758 4.302-32.504 4.302-14.978 0-29.636-1.912-43.976-5.736l7.17-51.624a98.747 98.747 0 0 0 13.862 3.824c5.098 1.275 10.197 1.912 15.296 1.912 7.01 0 12.906-.637 17.686-1.912 4.78-1.275 8.763-3.346 11.95-6.214 3.505-2.549 6.373-6.055 8.604-10.516 2.23-4.143 4.62-9.241 7.17-15.296l10.994-27.246-97.99-231.352zm337.206 114.72c0-18.164 3.187-34.575 9.56-49.234 6.692-14.977 15.612-27.724 26.772-38.24 11.15-10.516 24.37-18.642 39.67-24.378 15.3-5.736 31.55-8.604 48.76-8.604 17.2 0 33.46 2.868 48.75 8.604 15.3 5.736 28.52 13.862 39.68 24.378 11.15 10.516 19.91 23.263 26.29 38.24 6.69 14.659 10.03 31.07 10.03 49.234s-3.34 34.735-10.03 49.712c-6.38 14.659-15.14 27.246-26.29 37.762-11.16 10.516-24.38 18.642-39.68 24.378-15.29 5.736-31.55 8.604-48.75 8.604-17.21 0-33.46-2.868-48.76-8.604-15.3-5.736-28.52-13.862-39.67-24.378-11.16-10.516-20.08-23.103-26.772-37.762-6.373-14.977-9.56-31.548-9.56-49.712zm57.362 0c0 8.923 1.43 17.527 4.3 25.812 3.19 8.285 7.65 15.615 13.38 21.988 6.06 6.373 13.23 11.472 21.51 15.296 8.29 3.824 17.69 5.736 28.21 5.736 10.51 0 19.91-1.912 28.2-5.736 8.28-3.824 15.29-8.923 21.03-15.296 6.06-6.373 10.52-13.703 13.38-21.988 3.19-8.285 4.78-16.889 4.78-25.812 0-8.923-1.59-17.527-4.78-25.812-2.86-8.285-7.32-15.615-13.38-21.988-5.74-6.373-12.75-11.472-21.03-15.296-8.29-3.824-17.69-5.736-28.2-5.736-10.52 0-19.92 1.912-28.21 5.736-8.28 3.824-15.45 8.923-21.51 15.296-5.73 6.373-10.19 13.703-13.38 21.988-2.87 8.285-4.3 16.889-4.3 25.812zm256.85-65.964h-47.32V274.56h47.32v-32.504c0-15.933 1.12-30.273 3.35-43.02 2.23-13.065 6.37-24.219 12.43-33.46 6.37-9.241 15.13-16.252 26.29-21.032 11.15-5.099 25.65-7.648 43.49-7.648 13.07 0 25.18 1.115 36.33 3.346l-3.82 48.756c-4.14-.956-8.13-1.753-11.95-2.39-3.83-.637-7.81-.956-11.95-.956-7.97 0-14.34 1.275-19.12 3.824-4.78 2.549-8.61 6.055-11.47 10.516-2.55 4.143-4.31 9.082-5.26 14.818-.64 5.736-.96 11.791-.96 18.164v41.586h53.06v48.756h-53.06V504h-57.36V323.316zM879.224 665.576h52.102L1077.116 1004h-68.832l-31.548-77.436H829.99L799.398 1004H732l147.224-338.424zm76.48 209.364l-52.102-137.664-53.058 137.664h105.16zm151.373-100.38h54.492v35.85h.956c5.099-10.835 13.225-20.395 24.378-28.68 11.472-8.604 26.768-12.906 45.888-12.906 36.009 0 59.909 14.181 71.7 42.542 8.285-14.659 18.642-25.334 31.07-32.026 12.428-7.011 27.246-10.516 44.454-10.516 15.296 0 28.202 2.549 38.718 7.648 10.516 5.099 18.961 12.109 25.334 21.032 6.692 8.923 11.472 19.439 14.34 31.548 2.868 11.791 4.302 24.537 4.302 38.24V1004h-57.36V873.984c0-7.011-.637-13.703-1.912-20.076-1.275-6.692-3.505-12.428-6.692-17.208-3.187-5.099-7.489-9.082-12.906-11.95-5.417-2.868-12.428-4.302-21.032-4.302-8.923 0-16.571 1.753-22.944 5.258-6.055 3.187-11.153 7.648-15.296 13.384-3.824 5.417-6.692 11.791-8.604 19.12-1.593 7.011-2.39 14.181-2.39 21.51V1004h-57.36V867.292c0-14.34-3.027-25.653-9.082-33.938-6.055-8.604-16.093-12.906-30.114-12.906-9.56 0-17.686 1.593-24.378 4.78-6.373 3.187-11.791 7.489-16.252 12.906-4.143 5.417-7.17 11.631-9.082 18.642-1.912 7.011-2.868 14.34-2.868 21.988V1004h-57.36V774.56zm540.674 63.574c-11.153-15.615-26.131-23.422-44.932-23.422-7.648 0-15.137 1.912-22.466 5.736-7.329 3.824-10.994 10.038-10.994 18.642 0 7.011 3.027 12.109 9.082 15.296 6.055 3.187 13.703 5.895 22.944 8.126s19.12 4.621 29.636 7.17c10.835 2.231 20.873 5.895 30.114 10.994 9.241 4.78 16.889 11.472 22.944 20.076 6.055 8.604 9.082 20.395 9.082 35.372 0 13.703-3.027 25.334-9.082 34.894-5.736 9.241-13.384 16.73-22.944 22.466-9.241 5.736-19.757 9.879-31.548 12.428-11.791 2.549-23.581 3.824-35.372 3.824-17.845 0-34.257-2.549-49.234-7.648-14.977-5.099-28.361-14.34-40.152-27.724l38.24-35.85c7.329 8.285 15.137 15.137 23.422 20.554 8.604 5.099 18.961 7.648 31.07 7.648 4.143 0 8.445-.478 12.906-1.434s8.604-2.549 12.428-4.78c3.824-2.231 6.851-4.939 9.082-8.126 2.549-3.505 3.824-7.489 3.824-11.95 0-7.967-3.027-13.862-9.082-17.686-6.055-3.824-13.703-6.851-22.944-9.082-9.241-2.549-19.279-4.78-30.114-6.692-10.516-2.231-20.395-5.577-29.636-10.038-9.241-4.78-16.889-11.313-22.944-19.598-6.055-8.285-9.082-19.757-9.082-34.416 0-12.747 2.549-23.741 7.648-32.982 5.417-9.56 12.428-17.367 21.032-23.422s18.483-10.516 29.636-13.384a135.74 135.74 0 0 1 33.938-4.302c15.296 0 30.433 2.709 45.41 8.126 14.977 5.099 27.087 14.021 36.328 26.768l-38.24 34.416zm58.476-14.818V774.56h47.323v-66.442h57.36v66.442h63.1v48.756h-63.1v100.38c0 11.472 2.07 20.554 6.21 27.246 4.46 6.692 13.07 10.038 25.82 10.038 5.09 0 10.67-.478 16.73-1.434 6.05-1.275 10.83-3.187 14.34-5.736v48.278c-6.06 2.868-13.55 4.78-22.47 5.736-8.6 1.275-16.25 1.912-22.94 1.912-15.3 0-27.89-1.753-37.77-5.258-9.56-3.187-17.2-8.126-22.94-14.818-5.42-7.011-9.24-15.615-11.47-25.812-1.91-10.197-2.87-21.988-2.87-35.372v-105.16h-47.323zm258.443 86.04c1.91 17.208 8.6 30.592 20.07 40.152 11.48 9.56 25.34 14.34 41.59 14.34 14.34 0 26.29-2.868 35.85-8.604 9.88-6.055 18.48-13.543 25.81-22.466l41.11 31.07c-13.38 16.571-28.36 28.361-44.93 35.372-16.57 7.011-33.94 10.516-52.1 10.516-17.21 0-33.46-2.868-48.76-8.604-15.3-5.736-28.52-13.862-39.67-24.378-11.16-10.516-20.08-23.103-26.77-37.762-6.37-14.977-9.56-31.548-9.56-49.712 0-18.164 3.19-34.575 9.56-49.234 6.69-14.977 15.61-27.724 26.77-38.24 11.15-10.516 24.37-18.642 39.67-24.378 15.3-5.736 31.55-8.604 48.76-8.604 15.93 0 30.43 2.868 43.49 8.604 13.39 5.417 24.7 13.384 33.94 23.9 9.56 10.516 16.89 23.581 21.99 39.196 5.42 15.296 8.13 32.982 8.13 53.058v15.774h-174.95zm117.59-43.02c-.32-16.889-5.58-30.114-15.78-39.674-10.19-9.879-24.38-14.818-42.54-14.818-17.21 0-30.91 4.939-41.11 14.818-9.88 9.879-15.93 23.103-18.16 39.674h117.59zm106.22-91.776h57.36v36.328h.95c6.38-13.384 15.46-23.741 27.25-31.07 11.79-7.329 25.33-10.994 40.63-10.994 3.5 0 6.85.319 10.04.956 3.5.637 7.01 1.434 10.51 2.39v55.448a114.06 114.06 0 0 0-14.34-2.868 63.676 63.676 0 0 0-13.38-1.434c-13.38 0-24.22 2.549-32.5 7.648-7.97 4.78-14.19 10.357-18.65 16.73-4.14 6.373-7.01 12.747-8.6 19.12-1.28 6.373-1.91 11.153-1.91 14.34V1004h-57.36V774.56zm357.86 195.024h-.95c-8.29 14.021-19.44 24.219-33.46 30.592-14.02 6.373-29.16 9.56-45.41 9.56-17.85 0-33.78-3.027-47.8-9.082-13.71-6.373-25.5-14.977-35.38-25.812-9.87-10.835-17.36-23.581-22.46-38.24-5.1-14.659-7.65-30.433-7.65-47.322 0-16.889 2.71-32.663 8.13-47.322 5.41-14.659 12.9-27.405 22.46-38.24 9.88-10.835 21.67-19.279 35.37-25.334 13.71-6.373 28.68-9.56 44.94-9.56 10.83 0 20.39 1.115 28.68 3.346 8.28 2.231 15.61 5.099 21.98 8.604 6.38 3.505 11.8 7.329 16.26 11.472 4.46 3.824 8.12 7.648 10.99 11.472h1.43V642.632h57.36V1004h-54.49v-34.416zm-135.75-80.304c0 8.923 1.43 17.527 4.3 25.812 3.19 8.285 7.65 15.615 13.39 21.988 6.05 6.373 13.22 11.472 21.51 15.296 8.28 3.824 17.68 5.736 28.2 5.736 10.51 0 19.92-1.912 28.2-5.736 8.29-3.824 15.3-8.923 21.03-15.296 6.06-6.373 10.52-13.703 13.39-21.988a71.438 71.438 0 0 0 4.78-25.812c0-8.923-1.6-17.527-4.78-25.812-2.87-8.285-7.33-15.615-13.39-21.988-5.73-6.373-12.74-11.472-21.03-15.296-8.28-3.824-17.69-5.736-28.2-5.736-10.52 0-19.92 1.912-28.2 5.736-8.29 3.824-15.46 8.923-21.51 15.296-5.74 6.373-10.2 13.703-13.39 21.988-2.87 8.285-4.3 16.889-4.3 25.812zm398.6 83.172h-1.44c-8.28 13.065-18.8 22.625-31.55 28.68-12.74 5.736-26.76 8.604-42.06 8.604-10.52 0-20.87-1.434-31.07-4.302-9.88-2.868-18.8-7.17-26.77-12.906-7.65-5.736-13.86-12.906-18.64-21.51-4.78-8.604-7.17-18.642-7.17-30.114 0-12.428 2.23-22.944 6.69-31.548 4.46-8.923 10.36-16.252 17.69-21.988 7.65-6.055 16.41-10.835 26.29-14.34a165.246 165.246 0 0 1 30.59-7.648 224.981 224.981 0 0 1 32.5-3.346c10.84-.637 21.04-.956 30.6-.956h14.34v-6.214c0-14.34-4.94-25.015-14.82-32.026-9.88-7.329-22.47-10.994-37.76-10.994-12.11 0-23.43 2.231-33.94 6.692-10.52 4.143-19.6 9.879-27.25 17.208l-30.11-30.114c12.75-13.065 27.56-22.466 44.45-28.202 17.21-5.736 34.9-8.604 53.06-8.604 16.25 0 29.96 1.912 41.11 5.736 11.15 3.505 20.39 8.126 27.72 13.862 7.33 5.736 12.91 12.428 16.73 20.076 4.15 7.329 7.01 14.818 8.61 22.466 1.91 7.648 3.02 15.137 3.34 22.466.32 7.011.48 13.225.48 18.642V1004h-51.62v-31.548zm-3.35-71.222h-11.95c-7.97 0-16.89.319-26.77.956-9.88.637-19.28 2.231-28.2 4.78-8.6 2.231-15.93 5.736-21.99 10.516-6.05 4.461-9.08 10.835-9.08 19.12 0 5.417 1.12 10.038 3.35 13.862 2.55 3.505 5.73 6.533 9.56 9.082 3.82 2.549 8.12 4.461 12.9 5.736 4.78.956 9.56 1.434 14.34 1.434 19.76 0 34.26-4.621 43.5-13.862 9.56-9.56 14.34-22.466 14.34-38.718V901.23zm114.29-126.67h54.5v35.85h.95c5.1-10.835 13.23-20.395 24.38-28.68 11.47-8.604 26.77-12.906 45.89-12.906 36.01 0 59.91 14.181 71.7 42.542 8.28-14.659 18.64-25.334 31.07-32.026 12.43-7.011 27.24-10.516 44.45-10.516 15.3 0 28.2 2.549 38.72 7.648s18.96 12.109 25.33 21.032c6.7 8.923 11.48 19.439 14.34 31.548 2.87 11.791 4.31 24.537 4.31 38.24V1004h-57.36V873.984c0-7.011-.64-13.703-1.92-20.076-1.27-6.692-3.5-12.428-6.69-17.208-3.18-5.099-7.49-9.082-12.9-11.95-5.42-2.868-12.43-4.302-21.04-4.302-8.92 0-16.57 1.753-22.94 5.258-6.05 3.187-11.15 7.648-15.3 13.384-3.82 5.417-6.69 11.791-8.6 19.12a96.953 96.953 0 0 0-2.39 21.51V1004h-57.36V867.292c0-14.34-3.03-25.653-9.08-33.938-6.06-8.604-16.09-12.906-30.12-12.906-9.56 0-17.68 1.593-24.37 4.78-6.38 3.187-11.79 7.489-16.26 12.906-4.14 5.417-7.17 11.631-9.08 18.642-1.91 7.011-2.87 14.34-2.87 21.988V1004h-57.36V774.56z" fill="#EC0000"/></svg>