<svg viewBox="0 0 3470 1670" version="1.1" xmlns="http://www.w3.org/2000/svg" xmlns:xlink="http://www.w3.org/1999/xlink">
  <g fill="#EC0000">
    <path transform="matrix(0.707107 -0.707107 0.707107 0.707107 0 333.754)" d="M 295.5 0L 176.5 0L 176.5 176.5L 0 176.5L 0 295.5L 176.5 295.5L 176.5 472L 295.5 472L 295.5 295.5L 472 295.5L 472 176.5L 295.5 176.5L 295.5 0Z"/>
    <path transform="matrix(0.707107 -0.707107 0.707107 0.707107 0 834.754)" d="M 295.5 0L 176.5 0L 176.5 176.5L 0 176.5L 4.31584e-05 295.5L 176.5 295.5L 176.5 472L 295.5 472L 295.5 295.5L 472 295.5L 472 176.5L 295.5 176.5L 295.5 0Z"/>
    <path transform="matrix(0.707107 -0.707107 0.707107 0.707107 0 1335.754)" d="M 295.5 0L 176.5 0L 176.5 176.5L 0 176.5L 4.31584e-05 295.5L 176.5 295.5L 176.5 472L 295.5 472L 295.5 295.5L 472 295.5L 472 176.5L 295.5 176.5L 295.5 0Z"/>
    <path transform="translate(732 26)" d="M 270.07 218.924C 257.642 205.54 245.533 196.617 233.742 192.156C 222.27 187.695 210.639 185.464 198.848 185.464C 181.321 185.464 165.388 188.651 151.048 195.024C 137.027 201.079 124.917 209.683 114.72 220.836C 104.523 231.671 96.556 244.417 90.82 259.076C 85.4027 273.735 82.694 289.509 82.694 306.398C 82.694 324.562 85.4027 341.292 90.82 356.588C 96.556 371.884 104.523 385.109 114.72 396.262C 124.917 407.415 137.027 416.179 151.048 422.552C 165.388 428.925 181.321 432.112 198.848 432.112C 212.551 432.112 225.775 428.925 238.522 422.552C 251.587 415.86 263.697 405.344 274.85 391.004L 324.562 426.376C 309.266 447.408 290.624 462.704 268.636 472.264C 246.648 481.824 223.226 486.604 198.37 486.604C 172.239 486.604 148.18 482.461 126.192 474.176C 104.523 465.572 85.7213 453.622 69.788 438.326C 54.1733 422.711 41.9047 404.069 32.982 382.4C 24.0593 360.731 19.598 336.671 19.598 310.222C 19.598 283.135 24.0593 258.598 32.982 236.61C 41.9047 214.303 54.1733 195.343 69.788 179.728C 85.7213 164.113 104.523 152.163 126.192 143.878C 148.18 135.274 172.239 130.972 198.37 130.972C 221.314 130.972 242.505 135.115 261.944 143.4C 281.701 151.367 300.025 165.069 316.914 184.508L 270.07 218.924ZM 360.685 248.56L 418.045 248.56L 418.045 478L 360.685 478L 360.685 248.56ZM 352.559 170.646C 352.559 161.405 355.905 153.438 362.597 146.746C 369.607 139.735 378.371 136.23 388.887 136.23C 399.403 136.23 408.166 139.576 415.177 146.268C 422.506 152.641 426.171 160.767 426.171 170.646C 426.171 180.525 422.506 188.81 415.177 195.502C 408.166 201.875 399.403 205.062 388.887 205.062C 378.371 205.062 369.607 201.716 362.597 195.024C 355.905 188.013 352.559 179.887 352.559 170.646ZM 457.129 297.316L 457.129 248.56L 504.451 248.56L 504.451 182.118L 561.811 182.118L 561.811 248.56L 624.907 248.56L 624.907 297.316L 561.811 297.316L 561.811 397.696C 561.811 409.168 563.882 418.25 568.025 424.942C 572.486 431.634 581.09 434.98 593.837 434.98C 598.935 434.98 604.512 434.502 610.567 433.546C 616.621 432.271 621.401 430.359 624.907 427.81L 624.907 476.088C 618.852 478.956 611.363 480.868 602.441 481.824C 593.837 483.099 586.189 483.736 579.497 483.736C 564.201 483.736 551.613 481.983 541.735 478.478C 532.175 475.291 524.527 470.352 518.791 463.66C 513.373 456.649 509.549 448.045 507.319 437.848C 505.407 427.651 504.451 415.86 504.451 402.476L 504.451 297.316L 457.129 297.316ZM 643.392 248.56L 706.488 248.56L 770.54 407.734L 771.496 407.734L 828.856 248.56L 888.606 248.56L 780.1 527.234C 775.957 538.069 771.336 547.469 766.238 555.436C 761.458 563.721 755.722 570.573 749.03 575.99C 742.338 581.726 734.371 585.869 725.13 588.418C 716.207 591.286 705.372 592.72 692.626 592.72C 677.648 592.72 662.99 590.808 648.65 586.984L 655.82 535.36C 660.281 536.953 664.902 538.228 669.682 539.184C 674.78 540.459 679.879 541.096 684.978 541.096C 691.988 541.096 697.884 540.459 702.664 539.184C 707.444 537.909 711.427 535.838 714.614 532.97C 718.119 530.421 720.987 526.915 723.218 522.454C 725.448 518.311 727.838 513.213 730.388 507.158L 741.382 479.912L 643.392 248.56ZM 980.598 363.28C 980.598 345.116 983.785 328.705 990.158 314.046C 996.85 299.069 1005.77 286.322 1016.93 275.806C 1028.08 265.29 1041.3 257.164 1056.6 251.428C 1071.9 245.692 1088.15 242.824 1105.36 242.824C 1122.56 242.824 1138.82 245.692 1154.11 251.428C 1169.41 257.164 1182.63 265.29 1193.79 275.806C 1204.94 286.322 1213.7 299.069 1220.08 314.046C 1226.77 328.705 1230.11 345.116 1230.11 363.28C 1230.11 381.444 1226.77 398.015 1220.08 412.992C 1213.7 427.651 1204.94 440.238 1193.79 450.754C 1182.63 461.27 1169.41 469.396 1154.11 475.132C 1138.82 480.868 1122.56 483.736 1105.36 483.736C 1088.15 483.736 1071.9 480.868 1056.6 475.132C 1041.3 469.396 1028.08 461.27 1016.93 450.754C 1005.77 440.238 996.85 427.651 990.158 412.992C 983.785 398.015 980.598 381.444 980.598 363.28ZM 1037.96 363.28C 1037.96 372.203 1039.39 380.807 1042.26 389.092C 1045.45 397.377 1049.91 404.707 1055.64 411.08C 1061.7 417.453 1068.87 422.552 1077.15 426.376C 1085.44 430.2 1094.84 432.112 1105.36 432.112C 1115.87 432.112 1125.27 430.2 1133.56 426.376C 1141.84 422.552 1148.85 417.453 1154.59 411.08C 1160.65 404.707 1165.11 397.377 1167.97 389.092C 1171.16 380.807 1172.75 372.203 1172.75 363.28C 1172.75 354.357 1171.16 345.753 1167.97 337.468C 1165.11 329.183 1160.65 321.853 1154.59 315.48C 1148.85 309.107 1141.84 304.008 1133.56 300.184C 1125.27 296.36 1115.87 294.448 1105.36 294.448C 1094.84 294.448 1085.44 296.36 1077.15 300.184C 1068.87 304.008 1061.7 309.107 1055.64 315.48C 1049.91 321.853 1045.45 329.183 1042.26 337.468C 1039.39 345.753 1037.96 354.357 1037.96 363.28ZM 1294.81 297.316L 1247.49 297.316L 1247.49 248.56L 1294.81 248.56L 1294.81 216.056C 1294.81 200.123 1295.93 185.783 1298.16 173.036C 1300.39 159.971 1304.53 148.817 1310.59 139.576C 1316.96 130.335 1325.72 123.324 1336.88 118.544C 1348.03 113.445 1362.53 110.896 1380.37 110.896C 1393.44 110.896 1405.55 112.011 1416.7 114.242L 1412.88 162.998C 1408.74 162.042 1404.75 161.245 1400.93 160.608C 1397.1 159.971 1393.12 159.652 1388.98 159.652C 1381.01 159.652 1374.64 160.927 1369.86 163.476C 1365.08 166.025 1361.25 169.531 1358.39 173.992C 1355.84 178.135 1354.08 183.074 1353.13 188.81C 1352.49 194.546 1352.17 200.601 1352.17 206.974L 1352.17 248.56L 1405.23 248.56L 1405.23 297.316L 1352.17 297.316L 1352.17 478L 1294.81 478L 1294.81 297.316ZM 147.224 639.576L 199.326 639.576L 345.116 978L 276.284 978L 244.736 900.564L 97.99 900.564L 67.398 978L 0 978L 147.224 639.576ZM 223.704 848.94L 171.602 711.276L 118.544 848.94L 223.704 848.94ZM 375.077 748.56L 429.569 748.56L 429.569 784.41L 430.525 784.41C 435.624 773.575 443.75 764.015 454.903 755.73C 466.375 747.126 481.671 742.824 500.791 742.824C 536.8 742.824 560.7 757.005 572.491 785.366C 580.776 770.707 591.133 760.032 603.561 753.34C 615.989 746.329 630.807 742.824 648.015 742.824C 663.311 742.824 676.217 745.373 686.733 750.472C 697.249 755.571 705.694 762.581 712.067 771.504C 718.759 780.427 723.539 790.943 726.407 803.052C 729.275 814.843 730.709 827.589 730.709 841.292L 730.709 978L 673.349 978L 673.349 847.984C 673.349 840.973 672.712 834.281 671.437 827.908C 670.162 821.216 667.932 815.48 664.745 810.7C 661.558 805.601 657.256 801.618 651.839 798.75C 646.422 795.882 639.411 794.448 630.807 794.448C 621.884 794.448 614.236 796.201 607.863 799.706C 601.808 802.893 596.71 807.354 592.567 813.09C 588.743 818.507 585.875 824.881 583.963 832.21C 582.37 839.221 581.573 846.391 581.573 853.72L 581.573 978L 524.213 978L 524.213 841.292C 524.213 826.952 521.186 815.639 515.131 807.354C 509.076 798.75 499.038 794.448 485.017 794.448C 475.457 794.448 467.331 796.041 460.639 799.228C 454.266 802.415 448.848 806.717 444.387 812.134C 440.244 817.551 437.217 823.765 435.305 830.776C 433.393 837.787 432.437 845.116 432.437 852.764L 432.437 978L 375.077 978L 375.077 748.56ZM 915.751 812.134C 904.598 796.519 889.62 788.712 870.819 788.712C 863.171 788.712 855.682 790.624 848.353 794.448C 841.024 798.272 837.359 804.486 837.359 813.09C 837.359 820.101 840.386 825.199 846.441 828.386C 852.496 831.573 860.144 834.281 869.385 836.512C 878.626 838.743 888.505 841.133 899.021 843.682C 909.856 845.913 919.894 849.577 929.135 854.676C 938.376 859.456 946.024 866.148 952.079 874.752C 958.134 883.356 961.161 895.147 961.161 910.124C 961.161 923.827 958.134 935.458 952.079 945.018C 946.343 954.259 938.695 961.748 929.135 967.484C 919.894 973.22 909.378 977.363 897.587 979.912C 885.796 982.461 874.006 983.736 862.215 983.736C 844.37 983.736 827.958 981.187 812.981 976.088C 798.004 970.989 784.62 961.748 772.829 948.364L 811.069 912.514C 818.398 920.799 826.206 927.651 834.491 933.068C 843.095 938.167 853.452 940.716 865.561 940.716C 869.704 940.716 874.006 940.238 878.467 939.282C 882.928 938.326 887.071 936.733 890.895 934.502C 894.719 932.271 897.746 929.563 899.977 926.376C 902.526 922.871 903.801 918.887 903.801 914.426C 903.801 906.459 900.774 900.564 894.719 896.74C 888.664 892.916 881.016 889.889 871.775 887.658C 862.534 885.109 852.496 882.878 841.661 880.966C 831.145 878.735 821.266 875.389 812.025 870.928C 802.784 866.148 795.136 859.615 789.081 851.33C 783.026 843.045 779.999 831.573 779.999 816.914C 779.999 804.167 782.548 793.173 787.647 783.932C 793.064 774.372 800.075 766.565 808.679 760.51C 817.283 754.455 827.162 749.994 838.315 747.126C 849.468 744.258 860.781 742.824 872.253 742.824C 887.549 742.824 902.686 745.533 917.663 750.95C 932.64 756.049 944.75 764.971 953.991 777.718L 915.751 812.134ZM 974.227 797.316L 974.227 748.56L 1021.55 748.56L 1021.55 682.118L 1078.91 682.118L 1078.91 748.56L 1142.01 748.56L 1142.01 797.316L 1078.91 797.316L 1078.91 897.696C 1078.91 909.168 1080.98 918.25 1085.12 924.942C 1089.58 931.634 1098.19 934.98 1110.94 934.98C 1116.03 934.98 1121.61 934.502 1127.67 933.546C 1133.72 932.271 1138.5 930.359 1142.01 927.81L 1142.01 976.088C 1135.95 978.956 1128.46 980.868 1119.54 981.824C 1110.94 983.099 1103.29 983.736 1096.6 983.736C 1081.3 983.736 1068.71 981.983 1058.83 978.478C 1049.27 975.291 1041.63 970.352 1035.89 963.66C 1030.47 956.649 1026.65 948.045 1024.42 937.848C 1022.51 927.651 1021.55 915.86 1021.55 902.476L 1021.55 797.316L 974.227 797.316ZM 1232.67 883.356C 1234.58 900.564 1241.27 913.948 1252.74 923.508C 1264.22 933.068 1278.08 937.848 1294.33 937.848C 1308.67 937.848 1320.62 934.98 1330.18 929.244C 1340.06 923.189 1348.66 915.701 1355.99 906.778L 1397.1 937.848C 1383.72 954.419 1368.74 966.209 1352.17 973.22C 1335.6 980.231 1318.23 983.736 1300.07 983.736C 1282.86 983.736 1266.61 980.868 1251.31 975.132C 1236.01 969.396 1222.79 961.27 1211.64 950.754C 1200.48 940.238 1191.56 927.651 1184.87 912.992C 1178.5 898.015 1175.31 881.444 1175.31 863.28C 1175.31 845.116 1178.5 828.705 1184.87 814.046C 1191.56 799.069 1200.48 786.322 1211.64 775.806C 1222.79 765.29 1236.01 757.164 1251.31 751.428C 1266.61 745.692 1282.86 742.824 1300.07 742.824C 1316 742.824 1330.5 745.692 1343.56 751.428C 1356.95 756.845 1368.26 764.812 1377.5 775.328C 1387.06 785.844 1394.39 798.909 1399.49 814.524C 1404.91 829.82 1407.62 847.506 1407.62 867.582L 1407.62 883.356L 1232.67 883.356ZM 1350.26 840.336C 1349.94 823.447 1344.68 810.222 1334.48 800.662C 1324.29 790.783 1310.1 785.844 1291.94 785.844C 1274.73 785.844 1261.03 790.783 1250.83 800.662C 1240.95 810.541 1234.9 823.765 1232.67 840.336L 1350.26 840.336ZM 1456.48 748.56L 1513.84 748.56L 1513.84 784.888L 1514.79 784.888C 1521.17 771.504 1530.25 761.147 1542.04 753.818C 1553.83 746.489 1567.37 742.824 1582.67 742.824C 1586.17 742.824 1589.52 743.143 1592.71 743.78C 1596.21 744.417 1599.72 745.214 1603.22 746.17L 1603.22 801.618C 1598.44 800.343 1593.66 799.387 1588.88 798.75C 1584.42 797.794 1579.96 797.316 1575.5 797.316C 1562.12 797.316 1551.28 799.865 1543 804.964C 1535.03 809.744 1528.81 815.321 1524.35 821.694C 1520.21 828.067 1517.34 834.441 1515.75 840.814C 1514.47 847.187 1513.84 851.967 1513.84 855.154L 1513.84 978L 1456.48 978L 1456.48 748.56ZM 1814.34 943.584L 1813.39 943.584C 1805.1 957.605 1793.95 967.803 1779.93 974.176C 1765.91 980.549 1750.77 983.736 1734.52 983.736C 1716.67 983.736 1700.74 980.709 1686.72 974.654C 1673.01 968.281 1661.22 959.677 1651.34 948.842C 1641.47 938.007 1633.98 925.261 1628.88 910.602C 1623.78 895.943 1621.23 880.169 1621.23 863.28C 1621.23 846.391 1623.94 830.617 1629.36 815.958C 1634.77 801.299 1642.26 788.553 1651.82 777.718C 1661.7 766.883 1673.49 758.439 1687.19 752.384C 1700.9 746.011 1715.87 742.824 1732.13 742.824C 1742.96 742.824 1752.52 743.939 1760.81 746.17C 1769.09 748.401 1776.42 751.269 1782.79 754.774C 1789.17 758.279 1794.59 762.103 1799.05 766.246C 1803.51 770.07 1807.17 773.894 1810.04 777.718L 1811.47 777.718L 1811.47 616.632L 1868.83 616.632L 1868.83 978L 1814.34 978L 1814.34 943.584ZM 1678.59 863.28C 1678.59 872.203 1680.02 880.807 1682.89 889.092C 1686.08 897.377 1690.54 904.707 1696.28 911.08C 1702.33 917.453 1709.5 922.552 1717.79 926.376C 1726.07 930.2 1735.47 932.112 1745.99 932.112C 1756.5 932.112 1765.91 930.2 1774.19 926.376C 1782.48 922.552 1789.49 917.453 1795.22 911.08C 1801.28 904.707 1805.74 897.377 1808.61 889.092C 1811.79 880.807 1813.39 872.203 1813.39 863.28C 1813.39 854.357 1811.79 845.753 1808.61 837.468C 1805.74 829.183 1801.28 821.853 1795.22 815.48C 1789.49 809.107 1782.48 804.008 1774.19 800.184C 1765.91 796.36 1756.5 794.448 1745.99 794.448C 1735.47 794.448 1726.07 796.36 1717.79 800.184C 1709.5 804.008 1702.33 809.107 1696.28 815.48C 1690.54 821.853 1686.08 829.183 1682.89 837.468C 1680.02 845.753 1678.59 854.357 1678.59 863.28ZM 2077.19 946.452L 2075.75 946.452C 2067.47 959.517 2056.95 969.077 2044.2 975.132C 2031.46 980.868 2017.44 983.736 2002.14 983.736C 1991.62 983.736 1981.27 982.302 1971.07 979.434C 1961.19 976.566 1952.27 972.264 1944.3 966.528C 1936.65 960.792 1930.44 953.622 1925.66 945.018C 1920.88 936.414 1918.49 926.376 1918.49 914.904C 1918.49 902.476 1920.72 891.96 1925.18 883.356C 1929.64 874.433 1935.54 867.104 1942.87 861.368C 1950.52 855.313 1959.28 850.533 1969.16 847.028C 1979.04 843.523 1989.23 840.973 1999.75 839.38C 2010.59 837.468 2021.42 836.353 2032.25 836.034C 2043.09 835.397 2053.29 835.078 2062.85 835.078L 2077.19 835.078L 2077.19 828.864C 2077.19 814.524 2072.25 803.849 2062.37 796.838C 2052.49 789.509 2039.9 785.844 2024.61 785.844C 2012.5 785.844 2001.18 788.075 1990.67 792.536C 1980.15 796.679 1971.07 802.415 1963.42 809.744L 1933.31 779.63C 1946.06 766.565 1960.87 757.164 1977.76 751.428C 1994.97 745.692 2012.66 742.824 2030.82 742.824C 2047.07 742.824 2060.78 744.736 2071.93 748.56C 2083.08 752.065 2092.32 756.686 2099.65 762.422C 2106.98 768.158 2112.56 774.85 2116.38 782.498C 2120.53 789.827 2123.39 797.316 2124.99 804.964C 2126.9 812.612 2128.01 820.101 2128.33 827.43C 2128.65 834.441 2128.81 840.655 2128.81 846.072L 2128.81 978L 2077.19 978L 2077.19 946.452ZM 2073.84 875.23L 2061.89 875.23C 2053.92 875.23 2045 875.549 2035.12 876.186C 2025.24 876.823 2015.84 878.417 2006.92 880.966C 1998.32 883.197 1990.99 886.702 1984.93 891.482C 1978.88 895.943 1975.85 902.317 1975.85 910.602C 1975.85 916.019 1976.97 920.64 1979.2 924.464C 1981.75 927.969 1984.93 930.997 1988.76 933.546C 1992.58 936.095 1996.88 938.007 2001.66 939.282C 2006.44 940.238 2011.22 940.716 2016 940.716C 2035.76 940.716 2050.26 936.095 2059.5 926.854C 2069.06 917.294 2073.84 904.388 2073.84 888.136L 2073.84 875.23ZM 2188.13 748.56L 2242.63 748.56L 2242.63 784.41L 2243.58 784.41C 2248.68 773.575 2256.81 764.015 2267.96 755.73C 2279.43 747.126 2294.73 742.824 2313.85 742.824C 2349.86 742.824 2373.76 757.005 2385.55 785.366C 2393.83 770.707 2404.19 760.032 2416.62 753.34C 2429.05 746.329 2443.86 742.824 2461.07 742.824C 2476.37 742.824 2489.27 745.373 2499.79 750.472C 2510.31 755.571 2518.75 762.581 2525.12 771.504C 2531.82 780.427 2536.6 790.943 2539.46 803.052C 2542.33 814.843 2543.77 827.589 2543.77 841.292L 2543.77 978L 2486.41 978L 2486.41 847.984C 2486.41 840.973 2485.77 834.281 2484.49 827.908C 2483.22 821.216 2480.99 815.48 2477.8 810.7C 2474.62 805.601 2470.31 801.618 2464.9 798.75C 2459.48 795.882 2452.47 794.448 2443.86 794.448C 2434.94 794.448 2427.29 796.201 2420.92 799.706C 2414.87 802.893 2409.77 807.354 2405.62 813.09C 2401.8 818.507 2398.93 824.881 2397.02 832.21C 2395.43 839.221 2394.63 846.391 2394.63 853.72L 2394.63 978L 2337.27 978L 2337.27 841.292C 2337.27 826.952 2334.24 815.639 2328.19 807.354C 2322.13 798.75 2312.1 794.448 2298.07 794.448C 2288.51 794.448 2280.39 796.041 2273.7 799.228C 2267.32 802.415 2261.91 806.717 2257.44 812.134C 2253.3 817.551 2250.27 823.765 2248.36 830.776C 2246.45 837.787 2245.49 845.116 2245.49 852.764L 2245.49 978L 2188.13 978L 2188.13 748.56Z"/>
  </g>
</svg>
